<?xml version="1.0" encoding="UTF-8"?>
<svg xmlns="http://www.w3.org/2000/svg" xmlns:xlink="http://www.w3.org/1999/xlink" viewBox="0 0 15 15" width="15px" height="15px">
<g id="surface70599895">
<path style=" stroke:none;fill-rule:nonzero;fill:rgb(90.588236%,29.803923%,23.529412%);fill-opacity:1;" d="M 6.300781 0.898438 C 3.484375 0.898438 1.199219 3.1875 1.199219 6 C 1.199219 8.8125 3.484375 11.101562 6.300781 11.101562 C 7.414062 11.101562 8.441406 10.742188 9.28125 10.132812 L 13.226562 14.070312 L 14.070312 13.226562 L 10.171875 9.320312 C 10.9375 8.425781 11.398438 7.265625 11.398438 6 C 11.398438 3.1875 9.113281 0.898438 6.300781 0.898438 Z M 6.300781 1.5 C 8.789062 1.5 10.800781 3.511719 10.800781 6 C 10.800781 8.488281 8.789062 10.5 6.300781 10.5 C 3.8125 10.5 1.800781 8.488281 1.800781 6 C 1.800781 3.511719 3.8125 1.5 6.300781 1.5 Z M 6.300781 1.5 "/>
</g>
</svg>
